<svg width="64" height="64" viewBox="0 0 64 64" fill="none" xmlns="http://www.w3.org/2000/svg">
<path d="M51.1984 31.986C51.1984 40.3979 51.1984 48.8073 51.1984 57.2143C51.1984 58.5226 50.6838 59.5247 49.5153 60.1029C49.0562 60.3181 48.5554 60.4289 48.0485 60.4275C37.3561 60.4455 26.664 60.4492 15.9724 60.4385C14.0962 60.4385 12.8043 59.167 12.8043 57.2951C12.7986 40.4355 12.7986 23.5754 12.8043 6.71491C12.8043 4.83081 14.0852 3.55678 15.9553 3.55556C26.6477 3.55556 37.3398 3.55556 48.0314 3.55556C49.948 3.55556 51.1922 4.81856 51.1935 6.75778C51.2 15.1672 51.2016 23.5766 51.1984 31.986ZM13.9703 31.9566V56.8835C13.9703 58.2837 14.6413 59.0886 16.0225 59.3225C16.4248 59.3858 16.8315 59.4161 17.2387 59.4132C27.0772 59.4181 36.9153 59.4181 46.7529 59.4132C47.1209 59.4151 47.4885 59.391 47.853 59.3409C49.3698 59.1204 50.0531 58.3156 50.0531 56.7757C50.0531 47.7105 50.0531 38.6453 50.0531 29.5801C50.0531 22.0878 50.0531 14.5955 50.0531 7.10324C50.0531 5.72263 49.4102 4.93616 48.051 4.68136C47.6301 4.60809 47.2034 4.57324 46.7762 4.57723C36.8969 4.57151 27.0177 4.57151 17.1385 4.57723C16.8334 4.57388 16.5286 4.59394 16.2266 4.63726C14.601 4.89329 13.9776 5.62708 13.9776 7.27352C13.9719 15.5016 13.9695 23.7293 13.9703 31.9566Z" fill="#525252"/>
</svg>
