<svg width="64" height="64" viewBox="0 0 64 64" fill="none" xmlns="http://www.w3.org/2000/svg">
<path d="M44.0889 24.695V29.767L43.081 30.0375C43.081 33.4598 43.0472 36.8464 43.0967 40.233C43.1609 41.7651 42.6511 43.2664 41.6658 44.4467C39.9154 46.5926 38.6352 48.9577 38.8849 51.8882C38.9659 52.836 38.3652 53.415 37.4293 53.5737C33.4402 54.2443 29.4467 54.1638 25.4621 53.5513C24.5284 53.4083 24.0492 52.7712 23.984 51.8368C23.9142 50.8331 23.867 49.825 23.759 48.828C23.7039 48.0451 23.4934 47.2808 23.1397 46.5791C22.786 45.8774 22.2961 45.2522 21.6981 44.7395C21.1179 44.2672 20.6552 43.6684 20.3458 42.9895C20.0363 42.3107 19.8886 41.5702 19.9139 40.8254C19.9394 34.9389 19.9394 29.0524 19.9139 23.166C19.9139 21.8717 20.2492 20.6937 21.1604 19.7995C23.0368 17.9643 23.84 15.7267 23.9592 13.1783C23.9859 12.7288 24.0377 12.281 24.1145 11.8371C24.2494 11.0011 24.7557 10.5451 25.6016 10.4042C29.5209 9.74928 33.438 9.86552 37.355 10.4042C38.48 10.5585 38.9299 11.2067 39.1167 12.51C39.3192 13.9406 39.4744 15.4025 39.9154 16.7572C40.2808 17.7729 40.8452 18.7066 41.5758 19.5044C42.6265 20.7004 43.1777 21.9924 43.0697 23.5706C43.0382 24.2613 42.9955 24.9565 44.0889 24.695ZM42.064 32.056C42.064 29.1165 42.064 26.177 42.064 23.2375C42.064 20.7339 40.6893 19.3949 38.1582 19.3927C33.7394 19.3927 29.3199 19.3927 24.8997 19.3927C22.3258 19.3927 20.9196 20.7719 20.9174 23.2979C20.9174 29.1098 20.9174 34.9151 20.9174 40.7136C20.9174 43.1949 22.3168 44.6099 24.7849 44.6143C29.2427 44.6143 33.7004 44.6143 38.1582 44.6143C40.6781 44.6143 42.0483 43.2731 42.064 40.7673C42.0775 37.8613 42.064 34.9598 42.0663 32.056H42.064Z" fill="#525252"/>
</svg>
