<svg width="64" height="64" viewBox="0 0 64 64" fill="none" xmlns="http://www.w3.org/2000/svg">
<path d="M21.7697 12.8001C22.3358 12.8025 22.8997 12.856 23.3951 12.9637C24.843 13.2783 26.1702 14.0019 27.2191 15.0484C29.1567 16.9859 29.8439 19.6828 29.3038 22.1727C29.2806 22.275 29.2807 22.3813 29.304 22.4836C29.3273 22.586 29.3733 22.6818 29.4386 22.764C30.8469 24.5137 33.2479 27.0639 35.7075 29.5115C38.155 31.9713 40.7039 34.3721 42.4537 35.7805C42.5361 35.8458 42.6322 35.8918 42.7347 35.9151C42.8373 35.9384 42.9437 35.9384 43.0463 35.9152C45.5361 35.3751 48.2331 36.061 50.1706 37.9985C51.2171 39.048 51.9406 40.3757 52.2553 41.824C52.4707 42.8147 52.4662 44.0752 52.28 45.0912L48.1809 40.9879C48.1063 40.9129 48.0158 40.8556 47.916 40.8204C47.8163 40.7851 47.7099 40.7729 47.6047 40.7845L43.1233 41.2836C42.9591 41.3015 42.8129 41.3754 42.7025 41.4858C42.5922 41.5962 42.5183 41.7409 42.5004 41.9052L42.0026 46.3866C41.9908 46.4919 42.0028 46.5985 42.0378 46.6985C42.0728 46.7984 42.1299 46.8892 42.2048 46.9641L46.3094 51.0618C45.2934 51.2481 44.0315 51.2526 43.0408 51.0371C41.5929 50.7225 40.2657 49.9989 39.2167 48.9524C37.2792 47.0149 36.592 44.318 37.1321 41.8281C37.1553 41.7258 37.1552 41.6195 37.1319 41.5172C37.1086 41.4148 37.0626 41.319 36.9973 41.2368C35.589 39.4871 33.1867 36.9396 30.727 34.492C28.2794 32.0323 25.7319 29.6287 23.9821 28.2202C23.8997 28.155 23.8036 28.109 23.7011 28.0857C23.5985 28.0624 23.4921 28.0623 23.3895 28.0855C20.8997 28.6257 18.2027 27.9397 16.2652 26.0022C15.2187 24.9527 14.4952 23.6251 14.1805 22.1767C13.9651 21.186 13.9696 19.9241 14.1558 18.9081L18.2549 23.0128C18.3295 23.0878 18.42 23.1451 18.5198 23.1803C18.6195 23.2156 18.7259 23.2278 18.8311 23.2162L23.3125 22.7171C23.4767 22.6992 23.6229 22.6253 23.7333 22.5149C23.8436 22.4046 23.9175 22.2598 23.9354 22.0955L24.4346 17.6141C24.4462 17.5087 24.4339 17.4021 24.3987 17.3021C24.3635 17.2022 24.3062 17.1114 24.2311 17.0366L20.1264 12.939C20.6344 12.8458 21.2035 12.7976 21.7697 12.8001Z" fill="#525252"/>
<path d="M25.3655 35.1218C25.7687 35.1399 26.2127 35.3171 26.7007 35.8052C27.4574 36.5619 27.4665 37.2538 27.2769 37.8225C27.0873 38.3911 26.7007 38.7891 26.7007 38.7891L26.2002 39.2897L23.2122 36.3017L23.7128 35.8011C23.7128 35.8011 24.1135 35.4186 24.6822 35.229C24.8954 35.1579 25.1236 35.1109 25.3655 35.1218ZM20.8882 36.6206C21.2962 36.6436 21.7433 36.8239 22.2166 37.2972L25.2046 40.2852C25.9663 41.0469 25.9704 41.7338 25.7808 42.3025C25.5912 42.8711 25.2046 43.2691 25.2046 43.2691L18.2329 50.2408C18.2329 50.2408 17.8349 50.6274 17.2663 50.817C16.6977 51.0066 16.0049 50.9967 15.249 50.2408L12.261 47.2528C11.505 46.4968 11.4952 45.8042 11.6848 45.2355C11.8744 44.6668 12.261 44.2689 12.261 44.2689L19.2327 37.2972C19.2327 37.2972 19.6307 36.9106 20.1993 36.721C20.4126 36.6499 20.6434 36.6069 20.8882 36.6206ZM45.1926 15.4681L48.0407 13.333L49.1689 14.4612L47.0337 17.3093L45.1926 15.4681ZM27.8599 33.6464L27.1545 34.3518C27.3351 34.4819 27.5164 34.6299 27.6962 34.8097C27.8745 34.988 28.0209 35.1678 28.15 35.3473L28.8623 34.6364C28.5266 34.3031 28.1923 33.9699 27.8599 33.6464ZM44.6195 16.8868L34.8632 26.643C35.1868 26.9753 35.5201 27.3096 35.8533 27.6454L45.6164 17.8837L44.6195 16.8868Z" fill="#525252"/>
</svg>
