<svg width="64" height="64" viewBox="0 0 64 64" fill="none" xmlns="http://www.w3.org/2000/svg">
<path d="M53.9489 23.5668L32.5773 14.5319C32.4128 14.4615 32.2357 14.4251 32.0568 14.4251C31.8779 14.4251 31.7008 14.4615 31.5363 14.5319L10.059 23.5343C9.8172 23.6409 9.61154 23.8153 9.46688 24.0364C9.32222 24.2575 9.24476 24.5158 9.2439 24.78C9.24304 25.0442 9.31881 25.303 9.46203 25.525C9.60524 25.747 9.80977 25.9228 10.0508 26.0309C11.3203 26.575 18.7507 29.6921 19.7933 30.1459L31.5363 35.0984C31.871 35.232 32.2447 35.229 32.5773 35.0903C36.3506 33.498 46.0882 29.3814 49.712 27.8444C49.7039 28.8512 49.7185 37.3397 49.712 38.5709C48.0969 38.9783 47.4406 41.7319 48.3458 43.2226L47.1503 48.5899C47.1123 48.7509 47.1256 48.9198 47.1883 49.0729C47.251 49.226 47.36 49.3557 47.5 49.4438C47.639 49.5348 47.8027 49.5805 47.9687 49.5746C48.1347 49.5688 48.2948 49.5117 48.4271 49.4113C49.0052 48.9842 49.7009 48.7457 50.4195 48.7281C51.1841 48.7168 51.9307 48.96 52.542 49.4194C52.6796 49.5165 52.8436 49.5691 53.012 49.5699C53.1804 49.5707 53.345 49.5197 53.4835 49.4238C53.6219 49.328 53.7276 49.1919 53.7861 49.034C53.8446 48.8761 53.8532 48.704 53.8107 48.5411L52.2899 43.1982C53.0723 41.8564 52.6469 39.4468 51.3384 38.7742C51.3458 37.5324 51.3336 28.1388 51.3384 27.1613L53.9489 26.0553C54.1891 25.9479 54.3931 25.7733 54.5362 25.5525C54.6793 25.3317 54.7555 25.0742 54.7555 24.8111C54.7555 24.548 54.6793 24.2905 54.5362 24.0697C54.3931 23.8489 54.1891 23.6743 53.9489 23.5668Z" fill="#525252"/>
<path d="M30.902 36.5948C29.9229 36.1817 18.7703 31.4682 18.1669 31.2193V39.1402C18.1724 39.5654 18.2811 39.983 18.4837 40.357C18.6863 40.7309 18.9766 41.0501 19.3298 41.2871C22.9051 43.7177 27.101 45.075 31.4225 45.1987C36.1579 45.2928 40.8089 43.9364 44.7513 41.3115C45.1133 41.0734 45.4116 40.7503 45.6199 40.3704C45.8283 39.9904 45.9405 39.5653 45.9468 39.132V31.2112C45.3824 31.456 34.1688 36.1898 33.2116 36.5948C32.4719 36.8996 31.6417 36.8996 30.902 36.5948Z" fill="#525252"/>
</svg>
