<svg width="64" height="64" viewBox="0 0 64 64" fill="none" xmlns="http://www.w3.org/2000/svg">
<path d="M29.6945 54.0432C29.5395 54.0432 29.0593 54.0981 28.5792 54.1012C25.8462 54.1012 23.1111 54.1012 20.3741 54.1012C16.7273 54.1012 15.7549 53.137 15.7549 49.5244C15.7549 42.7164 15.7549 35.9093 15.7549 29.1032C15.7549 24.1238 15.7549 19.1474 15.7549 14.1526C15.7549 11.1442 16.8914 10.0184 19.8787 10.0123H32.1743C35.2892 10.0123 36.3619 11.0893 36.3771 14.2167C36.3771 14.827 36.3771 15.4128 36.3771 16.2457C35.1342 16.2457 34.0402 16.2457 32.9461 16.2457C29.9437 16.261 29.032 17.1611 29.032 20.139C29.032 29.9941 29.0046 39.8462 29.0563 49.7014C29.0776 51.1385 29.4635 52.5359 29.6945 54.0432ZM22.8538 22.6165C27.5551 22.6165 27.5551 22.6165 27.5551 17.872C27.5551 13.2587 27.4609 13.161 22.9055 13.161C18.1921 13.161 18.1161 13.2343 18.1283 17.8964C18.1435 22.6165 18.1435 22.6165 22.8538 22.6165Z" fill="#525252"/>
<path d="M30.6901 35.5215C30.6901 30.5642 30.6901 25.6079 30.6901 20.6527C30.6901 18.1035 31.6357 17.1494 34.1813 17.1372C37.818 17.1188 41.4547 17.1188 45.0914 17.1372C47.434 17.1556 48.4462 18.1495 48.4523 20.5116C48.4705 30.5775 48.4705 40.6424 48.4523 50.7062C48.4523 53.0162 47.3855 54.0806 45.1005 54.096C41.4153 54.1103 37.7312 54.0949 34.048 54.0499C31.6054 54.0193 30.7144 53.0591 30.7144 50.5528C30.6921 45.5383 30.6841 40.5278 30.6901 35.5215ZM36.0118 22.8368H35.9663C36.0041 22.1214 35.9991 21.4043 35.9512 20.6895C35.8118 19.5698 35.1026 18.9287 33.9965 18.9808C32.8903 19.033 32.2145 19.7048 32.1781 20.8429C32.1266 22.1159 32.1206 23.3951 32.1781 24.6682C32.2327 25.8462 32.857 26.5855 34.0844 26.5885C35.3117 26.5916 35.9027 25.8247 35.9997 24.6621C36.0573 24.0639 36.0118 23.4504 36.0118 22.8368ZM39.503 29.9476C36.0967 29.9783 33.554 32.6594 33.5995 36.181C33.6014 36.9756 33.7585 37.762 34.0617 38.4949C34.3648 39.2279 34.8081 39.893 35.366 40.452C35.9239 41.011 36.5854 41.4529 37.3125 41.7523C38.0396 42.0517 38.8181 42.2027 39.603 42.1966C40.4279 42.2396 41.2527 42.1115 42.0268 41.8202C42.801 41.5289 43.5081 41.0805 44.1049 40.5026C44.7017 39.9246 45.1755 39.2293 45.4972 38.4593C45.8189 37.6893 45.9818 36.8609 45.9758 36.0249C45.9698 35.1889 45.7951 34.363 45.4623 33.5978C45.1296 32.8326 44.6459 32.1444 44.0409 31.5753C43.4359 31.0062 42.7223 30.5682 41.9441 30.2883C41.1658 30.0084 40.3393 29.8925 39.5151 29.9476H39.503ZM40.2728 46.476C40.3163 45.9651 40.3071 45.4511 40.2455 44.9422C40.1788 44.6354 39.8546 44.3685 39.6394 44.0863C39.3545 44.3654 38.8575 44.6231 38.8272 44.9299C38.7242 45.9426 38.7242 46.9633 38.8272 47.976C38.8575 48.2828 39.3424 48.5589 39.6212 48.8503C39.8364 48.562 40.1698 48.3043 40.2273 47.9852C40.2934 47.485 40.3086 46.9793 40.2728 46.476Z" fill="#525252"/>
<path d="M44.909 36.078C44.8875 37.4723 44.3168 38.802 43.3203 39.7795C42.3238 40.7569 40.9817 41.3036 39.5844 41.3011C36.7063 41.3011 34.2423 38.9035 34.2452 36.081C34.2286 35.3718 34.3542 34.6664 34.6147 34.0064C34.8752 33.3464 35.2653 32.745 35.762 32.2375C36.2588 31.7301 36.8522 31.3269 37.5074 31.0516C38.1625 30.7763 38.8662 30.6345 39.5771 30.6345C40.288 30.6345 40.9917 30.7763 41.6469 31.0516C42.302 31.3269 42.8954 31.7301 43.3922 32.2375C43.8889 32.745 44.279 33.3464 44.5395 34.0064C44.8 34.6664 44.9256 35.3718 44.909 36.081V36.078Z" fill="#525252"/>
</svg>
