<svg width="64" height="64" viewBox="0 0 64 64" fill="none" xmlns="http://www.w3.org/2000/svg">
<path d="M20.4873 39.8801C20.4873 35.9681 20.5524 32.0551 20.4503 28.145C20.4173 26.8748 20.2941 25.5976 20.3032 24.3204C20.3032 23.9373 20.5624 23.5135 20.4613 23.1801C20.122 22.0507 20.3612 20.9135 20.3082 19.7841C20.2801 19.1956 20.5764 18.5615 20.4413 18.0177C20.3011 17.455 20.206 16.8824 20.3212 16.3733C20.6575 14.8767 20.3612 13.3723 20.5214 11.8807C20.7216 9.96934 22.2232 8.55617 24.1513 8.54922C29.3789 8.52805 34.6062 8.52805 39.8332 8.54922C42.0085 8.55815 43.5371 10.1371 43.5542 12.3352C43.5722 14.8311 43.427 17.3359 43.6012 19.8198C43.7354 21.7292 43.6643 23.6316 43.7354 25.535C43.7524 26.0074 43.5672 26.4858 43.5672 26.9611C43.5545 35.1788 43.5495 43.3968 43.5522 51.6152C43.5522 53.9344 41.9564 55.4697 39.6259 55.4667C34.5605 55.4601 29.4954 55.4601 24.4306 55.4667C22.062 55.4667 20.4974 53.9245 20.4944 51.5765C20.4857 47.6757 20.4833 43.7769 20.4873 39.8801ZM21.5975 32.0233V38.5057C21.5975 42.8722 21.5975 47.2387 21.5975 51.6053C21.5975 53.1931 22.6987 54.3572 24.2344 54.3602C29.433 54.3711 34.6316 54.3602 39.8302 54.3602C40.4718 54.3632 41.0904 54.1228 41.559 53.6883C42.2157 53.1028 42.455 52.3565 42.455 51.4931C42.449 38.5298 42.4533 25.5661 42.468 12.6022C42.468 10.8853 41.2617 9.60413 39.4808 9.62497C34.5044 9.68154 29.5261 9.64482 24.5487 9.64582C22.6617 9.64582 21.5985 10.7027 21.5985 12.5783L21.5975 32.0233Z" fill="#525252"/>
<path d="M31.6627 12.0859C31.0304 12.0859 30.3992 12.0926 29.768 12.0859C29.16 12.0773 28.7892 11.7854 28.8035 11.3461C28.8179 10.927 29.1787 10.6686 29.7691 10.6667C31.0315 10.6667 32.295 10.6667 33.5585 10.6667C34.1654 10.6667 34.4942 10.9241 34.492 11.3691C34.4898 11.8141 34.1433 12.0754 33.5562 12.0811C32.925 12.0878 32.2939 12.0811 31.6627 12.0811V12.0859Z" fill="#525252"/>
</svg>
