<svg width="64" height="64" viewBox="0 0 64 64" fill="none" xmlns="http://www.w3.org/2000/svg">
<path d="M18.8386 34.1125C20.7147 29.797 18.4634 24.5529 12.8394 22.9472C14.2985 17.6556 21.2129 14.692 26.0532 17.2924C27.4106 18.0117 28.5033 19.1378 29.175 20.5094C29.8468 21.881 30.063 23.4278 29.7928 24.9285C29.0048 29.6134 23.781 34.0299 18.8386 34.1125ZM26.3179 21.5645C26.0469 21.1909 25.8468 20.6213 25.4987 20.5119C25.0547 20.3737 24.3626 20.4438 24.0062 20.7183C23.1869 21.3375 22.497 22.13 21.7736 22.8709C21.1733 23.49 21.092 24.1711 21.7403 24.7737C22.3448 25.3371 23.0118 25.236 23.5934 24.6767C24.3147 23.9812 25.0338 23.2836 25.7196 22.5592C25.9427 22.326 26.0677 21.9938 26.3179 21.5645Z" fill="#525252"/>
<path d="M45.2959 34.1125C41.1074 33.6184 37.9264 31.8109 35.7426 28.4018C34.8058 26.9361 34.1584 25.3715 34.173 23.5764C34.1738 21.756 34.869 20.0029 36.1197 18.6673C37.3704 17.3316 39.0847 16.5116 40.92 16.3712C45.7081 15.9924 49.8425 18.5904 51.2394 22.932C48.8141 23.5846 46.8448 24.8795 45.5853 27.0946C44.3258 29.3097 44.1926 31.5804 45.2959 34.1125ZM41.7402 25.0545C41.9109 24.9166 42.396 24.7086 42.5272 24.3669C42.675 23.984 42.6791 23.3376 42.4397 23.0535C41.6629 22.1347 40.8023 21.2885 39.8687 20.5255C39.5835 20.2929 38.9069 20.2929 38.5447 20.4637C38.2241 20.612 37.9514 21.1349 37.9056 21.5198C37.8098 22.3433 40.6536 25.0874 41.7402 25.0565V25.0545Z" fill="#525252"/>
<path d="M57.6394 29.0562C57.6394 32.6875 54.1074 35.7682 50.2422 35.5208C47.5221 35.3485 45.559 33.329 45.5505 30.6936C45.5358 27.3159 48.6671 24.2747 52.2729 24.1598C55.381 24.0687 57.6457 26.1338 57.6394 29.0562ZM52.0578 33.123C53.4917 33.123 55.6952 31.05 55.653 29.7294C55.6277 29.0067 55.0204 28.5632 54.217 28.68C52.8633 28.878 51.0984 30.5491 50.9107 31.8064C50.7989 32.5726 51.2818 33.123 52.0578 33.123Z" fill="#525252"/>
<path d="M13.2402 35.5338C9.24596 35.4724 5.9835 31.9171 6.49174 28.1914C6.82706 25.7777 9.02242 24.0971 11.7787 24.1586C15.3217 24.2378 18.4808 27.2382 18.5272 30.5695C18.5842 33.4946 16.3572 35.5834 13.2402 35.5338ZM9.65509 28.6512C8.83262 28.6314 8.31805 29.222 8.46356 30.0186C8.69132 31.2691 10.3721 32.8624 11.7049 33.0943C12.5654 33.2429 13.1959 32.7812 13.1812 32.0083C13.1917 30.6904 11.0828 28.6869 9.66985 28.6512H9.65509Z" fill="#525252"/>
<path d="M17.8171 35.3828L23.4566 34.1125C23.4705 34.3078 23.506 34.5709 23.506 34.834C23.506 38.2851 23.506 41.7384 23.506 45.1896C23.506 47.0231 22.8957 47.6171 21.11 47.6233C18.0384 47.6336 17.8231 47.4177 17.8231 44.1926L17.8171 35.3828Z" fill="#525252"/>
<path d="M40.604 34.1125L46.1911 35.3693C46.2252 35.6069 46.247 35.8461 46.2563 36.0861C46.2563 39.1933 46.2682 42.3025 46.2563 45.4097C46.2563 46.9438 45.6261 47.5805 44.1601 47.6133C40.8331 47.6893 40.5763 47.4264 40.5763 43.9557C40.5763 40.9848 40.5763 38.0124 40.5763 35.0387C40.5625 34.7101 40.5921 34.3774 40.604 34.1125Z" fill="#525252"/>
</svg>
