<svg width="64" height="64" viewBox="0 0 64 64" fill="none" xmlns="http://www.w3.org/2000/svg">
<path d="M2.06184 49.3607H9.54688C7.89905 48.5487 7.58585 47.1959 7.59183 45.5287C7.61976 35.8202 7.59183 26.1118 7.60779 16.4056C7.60779 13.8207 8.37385 13.0022 10.7399 13H53.4676C55.8077 13 56.5897 13.8616 56.5917 16.4293C56.5917 26.1872 56.5797 35.9473 56.6077 45.7053C56.6077 47.2971 56.1987 48.4948 54.6985 49.2595H61.8803L62 49.7636C61.4993 49.9682 61.0025 50.2999 60.4958 50.3581C58.2874 50.6123 56.073 50.9526 53.8586 50.9591C39.2862 51.0136 24.7125 51.0136 10.1374 50.9591C7.92499 50.9591 5.7086 50.608 3.5002 50.3602C2.98949 50.3021 2.50273 49.9984 2 49.8088L2.06184 49.3607ZM9.40723 15.7098V46.2481H54.511V15.7098H9.40723ZM25.8556 49.1604C27.4515 50.1405 37.0632 50.022 37.8691 49.1604H25.8556Z" fill="#525252"/>
</svg>
