<svg width="50" height="50" viewBox="0 0 50 50" fill="none" xmlns="http://www.w3.org/2000/svg">
<path d="M16.9976 36.9804H1.07422V1.07422H48.9258V36.9804H35.5523" stroke="#525252" stroke-miterlimit="2.6131" stroke-linecap="round" stroke-linejoin="round"/>
<path fill-rule="evenodd" clip-rule="evenodd" d="M14.7171 9H1.5V1H42.5V4.96674H17.2875" fill="#525252" fill-opacity="0.1"/>
<path d="M48.4375 5.46875H19.6288L16.2108 9.86328H1.5625M6.39102 26.4649H11.7079M6.39102 30.8595H11.7079M27.6584 26.4649H32.9753M38.2921 26.4649H43.6089M38.2921 30.8595H43.6089M19.6831 25.9766C20.8917 25.9766 21.8804 26.9653 21.8804 28.1737V35.498C21.8804 34.2846 22.8642 33.3008 24.0776 33.3008C25.2912 33.3008 26.2749 34.2846 26.2749 35.498C26.2749 34.2846 27.2586 33.3008 28.4722 33.3008C29.6857 33.3008 30.6694 34.2846 30.6694 35.498C30.6694 34.2846 31.6531 33.3008 32.8667 33.3008C34.0803 33.3008 35.064 34.2847 35.064 35.498V41.1133C35.064 45.4101 31.5482 48.9258 27.2515 48.9258H25.2983C21.0016 48.9258 17.4858 45.4102 17.4858 41.1133V28.1738C17.4858 26.9653 18.4746 25.9766 19.6831 25.9766Z" stroke="#525252" stroke-miterlimit="2.6131" stroke-linecap="round" stroke-linejoin="round"/>
<path d="M21.25 30.9148C21.25 29.8617 20.4063 29 19.375 29C18.3438 29 17.5 29.8617 17.5 30.9149V42.1915C17.5 45.9362 20.5001 49 24.1667 49H25.8333C29.4999 49 32.5 45.9361 32.5 42.1915V37.2979C32.5 36.2404 31.6606 35.383 30.625 35.383C29.5894 35.383 28.75 36.2403 28.75 37.2979C28.75 36.2403 27.9106 35.383 26.875 35.383C25.8394 35.383 25 36.2403 25 37.2979C25 37.2979 24.1605 35.383 23.125 35.383C22.0895 35.383 21.25 36.2403 21.25 37.2979V30.9148Z" fill="#525252" fill-opacity="0.1"/>
<path d="M5.46875 5.46875H5.46943M9.86328 5.46875H9.86396M14.2577 5.46875H14.2585M6.39102 15.6684H11.7079V20.9852H6.39102V15.6684ZM17.0247 15.6684H22.3416V20.9852H17.0247V15.6684ZM27.6584 15.6684H32.9752V20.9852H27.6584V15.6684ZM38.2921 15.6684H43.609V20.9852H38.2921V15.6684Z" stroke="#525252" stroke-miterlimit="2.6131" stroke-linecap="round" stroke-linejoin="round"/>
<path fill-rule="evenodd" clip-rule="evenodd" d="M6.46875 7.46875H6.46943ZM10.8633 7.46875H10.864ZM15.2577 7.46875H15.2585ZM7.39102 17.6684H12.7079V22.9852H7.39102V17.6684ZM18.0247 17.6684H23.3416V22.9852H18.0247V17.6684ZM28.6584 17.6684H33.9752V22.9852H28.6584V17.6684ZM39.2921 17.6684H44.609V22.9852H39.2921V17.6684Z" fill="#525252" fill-opacity="0.1"/>
</svg>
