<svg width="50" height="50" viewBox="0 0 50 50" fill="none" xmlns="http://www.w3.org/2000/svg">
<g clip-path="url(#clip0_68_6392)">
<path d="M41 40V4H11V40" fill="#525252" fill-opacity="0.1"/>
<path d="M30.9876 40.3324V42.4808C30.9876 43.6672 30.0257 44.6291 28.8392 44.6291H21.1611C19.9746 44.6291 19.0127 43.6672 19.0127 42.4808V40.3324" stroke="#525252" stroke-miterlimit="10" stroke-linejoin="round"/>
<path d="M24.5786 8.00842H35.8709V12.3051H24.5786V8.00842ZM24.5786 18.5549H35.8709V22.8516H24.5786V18.5549ZM24.5786 29.1014H35.8709V33.3982H24.5786V29.1014Z" fill="white" stroke="#525252" stroke-miterlimit="10" stroke-linecap="round" stroke-linejoin="round"/>
<path d="M46.9721 40.3324V16.4075C46.9721 14.2502 45.2232 12.5013 43.066 12.5013H42.5453M7.34145 12.5013H6.93443C4.77718 12.5013 3.02832 14.2502 3.02832 16.4075V40.3324" stroke="#525252" stroke-miterlimit="10" stroke-linejoin="round"/>
<path d="M42.3826 40.3324V1.07422H7.61816V40.3324" stroke="#525252" stroke-miterlimit="10" stroke-linejoin="round"/>
<path d="M19.4381 8.42139L15.9674 11.8921L14.1294 10.054M19.4381 18.9679L15.9674 22.4386L14.1294 20.6005M19.4381 29.5144L15.9674 32.9851L14.1294 31.1471" stroke="#525252" stroke-miterlimit="10" stroke-linecap="round" stroke-linejoin="round"/>
<path d="M44.6284 48.9258H5.37192C2.99886 48.9258 1.0752 47.0022 1.0752 44.6291V40.3324H48.9251V44.6291C48.9251 47.0021 47.0013 48.9258 44.6284 48.9258Z" stroke="#525252" stroke-miterlimit="10" stroke-linecap="round" stroke-linejoin="round"/>
</g>
<defs>
<clipPath id="clip0_68_6392">
<rect width="50" height="50" fill="white"/>
</clipPath>
</defs>
</svg>
