<svg width="50" height="50" viewBox="0 0 50 50" fill="none" xmlns="http://www.w3.org/2000/svg">
<path d="M18.5547 40.332H31.4453V44.6289H18.5547V40.332Z" stroke="#525252" stroke-miterlimit="10" stroke-linejoin="round"/>
<path d="M20.5 42H31.5V45H20.5V42Z" fill="#525252" fill-opacity="0.1"/>
<path d="M37.5975 15.0307V33.8865M37.5975 15.0307H31.8295V9.2627M37.5975 15.0307L31.8295 9.2627M27.1482 9.2627H31.8295M12.4021 33.8865V9.2627H22.8514M30.4686 33.8865L29.492 36.035H20.5076L19.5311 33.8865H4.14551V48.9256H45.8541V33.8865H30.4686Z" stroke="#525252" stroke-miterlimit="10" stroke-linejoin="round"/>
<path d="M12.5 34.1887V12H30.44V16.9811H35.5V34.1887H29.2023L28.14 36H20.32L18.48 34.1887H12.5Z" fill="#525252" fill-opacity="0.1"/>
<path d="M29.1428 5.21738L24.9996 1.07422L20.8564 5.21738H22.8512V11.4113H27.148V5.21738H29.1428Z" stroke="#525252" stroke-miterlimit="10" stroke-linejoin="round"/>
<path d="M29.5 6.20644L26 3L22.5 6.20644H24.1851V11H27.8149V6.20644H29.5Z" fill="#525252" fill-opacity="0.1"/>
<path d="M19.1214 19.6475H30.879M17.123 24.4588H32.8773M19.1214 29.2701H30.879" stroke="#525252" stroke-miterlimit="10" stroke-linecap="round" stroke-linejoin="round"/>
</svg>
