<svg width="50" height="50" viewBox="0 0 50 50" fill="none" xmlns="http://www.w3.org/2000/svg">
<path d="M25 10.8282C25.8026 10.8282 26.4531 10.1777 26.4531 9.37512C26.4531 8.57256 25.8026 7.922 25 7.922C24.1974 7.922 23.5469 8.57256 23.5469 9.37512C23.5469 10.1777 24.1974 10.8282 25 10.8282Z" stroke="#525252"/>
<path d="M25 42.0781C25.8026 42.0781 26.4531 41.4276 26.4531 40.625C26.4531 39.8224 25.8026 39.1719 25 39.1719C24.1974 39.1719 23.5469 39.8224 23.5469 40.625C23.5469 41.4276 24.1974 42.0781 25 42.0781Z" stroke="#525252"/>
<path d="M9.76562 26.4531C10.5682 26.4531 11.2188 25.8026 11.2188 25C11.2187 24.1974 10.5682 23.5469 9.76562 23.5469C8.96306 23.5469 8.3125 24.1974 8.3125 25C8.3125 25.8026 8.96306 26.4531 9.76562 26.4531Z" stroke="#525252"/>
<path d="M40.2344 26.4531C41.0369 26.4531 41.6875 25.8026 41.6875 25C41.6875 24.1974 41.0369 23.5469 40.2344 23.5469C39.4318 23.5469 38.7813 24.1974 38.7812 25C38.7812 25.8026 39.4318 26.4531 40.2344 26.4531Z" stroke="#525252"/>
<path d="M12.9238 37.0759C13.4913 37.6434 14.4111 37.6434 14.9785 37.0759C15.5459 36.5085 15.5459 35.5887 14.9785 35.0212C14.4111 34.4538 13.4912 34.4537 12.9238 35.0212C12.3563 35.5887 12.3563 36.5085 12.9238 37.0759Z" stroke="#525252"/>
<path d="M35.021 14.9789C35.5884 15.5463 36.5083 15.5463 37.0757 14.9789C37.6431 14.4114 37.6431 13.4916 37.0757 12.9242C36.5083 12.3567 35.5884 12.3567 35.021 12.9242C34.4535 13.4916 34.4535 14.4115 35.021 14.9789Z" stroke="#525252"/>
<path d="M35.021 37.0759C35.5884 37.6434 36.5083 37.6434 37.0757 37.0759C37.6431 36.5085 37.6432 35.5887 37.0757 35.0212C36.5083 34.4538 35.5884 34.4538 35.021 35.0212C34.4536 35.5887 34.4536 36.5085 35.021 37.0759Z" stroke="#525252"/>
<path d="M12.9238 14.9789C13.4913 15.5463 14.4111 15.5463 14.9785 14.9789C15.546 14.4115 15.546 13.4916 14.9785 12.9242C14.4111 12.3567 13.4913 12.3567 12.9238 12.9242C12.3564 13.4916 12.3564 14.4115 12.9238 14.9789Z" stroke="#525252"/>
<path d="M48.0467 25.0001C48.0467 37.9442 37.944 48.0469 24.9999 48.0469C12.0558 48.0469 1.95312 37.9442 1.95312 25.0001C1.95312 12.056 12.0558 1.95326 24.9999 1.95326C37.944 1.95326 48.0467 12.056 48.0467 25.0001Z" stroke="#525252" stroke-miterlimit="10" stroke-linecap="round" stroke-linejoin="round"/>
<path d="M25 17.1875V23.382C25 23.8949 25.101 24.4029 25.2973 24.8768C25.4937 25.3508 25.7814 25.7814 26.1441 26.1442L30.8594 30.8594" stroke="#525252" stroke-miterlimit="10" stroke-linecap="round" stroke-linejoin="round"/>
</svg>
