<svg width="199" height="51" viewBox="0 0 199 51" fill="none" xmlns="http://www.w3.org/2000/svg">
<g clip-path="url(#clip0_25_218)">
<path d="M125.401 -0.314835H124.439V33.3148H125.401V-0.314835Z" fill="white"/>
<path d="M6.31251 11.8491H3.42517V28.3348H6.31251V11.8491Z" fill="white"/>
<path d="M4.86884 4.66522C6.02944 4.66522 6.96358 5.60972 6.96358 6.78318C6.96358 7.95664 6.02944 8.90113 4.86884 8.90113C3.70825 8.90113 2.77411 7.95664 2.77411 6.78318C2.77411 5.60972 3.70825 4.66522 4.86884 4.66522Z" fill="#E86C17"/>
<path d="M104.652 28.3348C102.897 28.3348 101.198 27.6193 99.9247 26.3886L101.963 24.242C102.67 24.9289 103.633 25.3582 104.652 25.3582H112.295C114.333 25.3582 116.06 23.6409 116.06 21.5516C116.06 19.4623 114.361 17.745 112.295 17.745H106.662C103.123 17.745 99.9247 14.8257 99.9247 11.1908C99.9247 7.55594 103.123 4.66522 106.633 4.66522H114.248C116.003 4.66522 117.73 5.40937 119.004 6.66869L116.909 8.78665C116.201 8.07112 115.267 7.67043 114.248 7.67043H106.633C104.737 7.67043 102.869 9.21596 102.869 11.2194C102.869 13.2229 104.737 14.7684 106.633 14.7684H112.267C115.947 14.7684 118.975 17.8595 118.975 21.5516C118.975 25.2723 115.918 28.3348 112.267 28.3348H104.652Z" fill="white"/>
<path d="M23.9196 26.5603C23.4667 27.562 22.5326 28.3348 21.4286 28.3348C20.3246 28.3348 19.3622 27.562 18.9375 26.5603L9.39801 4.66522H12.625L21.4003 24.8716L30.1755 4.66522H33.4025L23.9196 26.5603Z" fill="white"/>
<path d="M41.2437 15.7988H46.8768C48.9433 15.7988 50.6417 14.0815 50.6417 11.9922V11.4484C50.6417 9.38769 48.9433 7.64181 46.8768 7.64181H41.2437C39.2056 7.64181 37.4788 9.35907 37.4788 11.4484V22.7537C37.4788 24.1561 38.6394 25.3296 40.0265 25.3296H48.0941C48.7734 25.3296 49.4245 25.0434 49.9057 24.5854L52.0005 26.7034C50.9531 27.7337 49.5377 28.3348 48.0941 28.3348H40.0265C37.0259 28.3348 34.5066 25.8161 34.5066 22.7537V11.4484C34.5066 7.72767 37.5637 4.66522 41.2154 4.66522H46.8485C50.5285 4.66522 53.5574 7.75629 53.5574 11.4484V11.9922C53.5574 15.7129 50.5002 18.7754 46.8485 18.7754H41.2154V15.7988H41.2437Z" fill="white"/>
<path d="M58.8791 28.3348V11.4484C58.8791 9.38769 60.5775 7.64181 62.6439 7.64181H68.2771C70.3435 7.64181 72.0419 9.35907 72.0419 11.4484V28.3348H75.0142V11.4484C75.0142 7.72767 71.957 4.66522 68.3054 4.66522H62.6722C58.9923 4.66522 55.9634 7.75629 55.9634 11.4484V28.3348H58.8791Z" fill="white"/>
<path d="M81.4682 4.66522V21.5516C81.4682 23.6123 83.1667 25.3582 85.2331 25.3582H90.8663C92.9044 25.3582 94.6311 23.6409 94.6311 21.5516V4.66522H97.6034V21.5516C97.6034 25.2723 94.5462 28.3348 90.8946 28.3348H85.2614C81.5815 28.3348 78.5526 25.2437 78.5526 21.5516V4.66522H81.4682Z" fill="white"/>
<mask id="mask0_25_218" style="mask-type:luminance" maskUnits="userSpaceOnUse" x="130" y="1" width="67" height="31">
<path d="M196.226 1.03035H130.978V31.9696H196.226V1.03035Z" fill="white"/>
</mask>
<g mask="url(#mask0_25_218)">
<path d="M187.507 1.68887C188.526 1.68887 189.149 1.68887 189.659 1.68887C190.14 1.68887 190.479 1.68887 190.734 1.71749C191.244 1.74611 191.612 1.77473 191.923 1.80335C192.461 1.88921 192.886 2.0037 193.282 2.20405C193.678 2.40439 194.018 2.66198 194.329 2.94819C194.641 3.26302 194.895 3.60647 195.065 4.00717C195.263 4.40786 195.377 4.83718 195.461 5.38097C195.518 5.69581 195.546 6.06788 195.546 6.58306C195.546 6.84064 195.575 7.1841 195.575 7.67065C195.575 8.15721 195.575 8.81549 195.575 9.84585V23.126C195.575 24.1563 195.575 24.8146 195.575 25.3012C195.575 25.7877 195.575 26.1312 195.546 26.3888C195.518 26.904 195.49 27.276 195.461 27.5909C195.377 28.1347 195.263 28.564 195.065 28.9647C194.867 29.3654 194.641 29.7088 194.329 30.0236C194.018 30.3385 193.678 30.5961 193.282 30.7678C192.886 30.9681 192.461 31.0826 191.923 31.1685C191.612 31.2257 191.244 31.2543 190.734 31.2543C190.479 31.2543 190.14 31.283 189.659 31.283C189.177 31.283 188.526 31.283 187.507 31.283H139.725C138.706 31.283 138.083 31.283 137.573 31.283C137.092 31.283 136.752 31.283 136.498 31.2543C135.988 31.2257 135.62 31.1971 135.309 31.1685C134.771 31.0826 134.346 30.9681 133.95 30.7678C133.554 30.5674 133.214 30.3099 132.903 30.0236C132.591 29.7088 132.336 29.3654 132.167 28.9647C131.968 28.564 131.855 28.1347 131.77 27.5909C131.714 27.276 131.685 26.904 131.685 26.3888C131.685 26.1312 131.657 25.7877 131.657 25.3012C131.657 24.8146 131.657 24.1563 131.657 23.126V9.84585C131.657 8.81549 131.657 8.15721 131.657 7.67065C131.657 7.1841 131.657 6.84064 131.685 6.58306C131.714 6.06788 131.742 5.69581 131.77 5.38097C131.855 4.83718 131.968 4.40786 132.167 4.00717C132.365 3.60647 132.591 3.26302 132.903 2.94819C133.214 2.63336 133.554 2.37577 133.95 2.20405C134.346 2.0037 134.771 1.88921 135.309 1.80335C135.62 1.74611 135.988 1.71749 136.498 1.71749C136.752 1.71749 137.092 1.68887 137.573 1.68887C138.054 1.68887 138.706 1.68887 139.725 1.68887H187.507ZM187.507 1.03058H139.725C138.706 1.03058 138.054 1.03058 137.573 1.03058C137.092 1.03058 136.752 1.03058 136.469 1.05921C135.96 1.08783 135.563 1.11645 135.224 1.14507C134.629 1.23093 134.148 1.37404 133.667 1.603C133.214 1.83197 132.789 2.11818 132.421 2.49026C132.053 2.86233 131.77 3.26302 131.544 3.74958C131.317 4.20751 131.176 4.72269 131.091 5.32373C131.034 5.69581 131.006 6.06788 131.006 6.61168C131.006 6.89789 130.978 7.24134 130.978 7.7279C130.978 8.21445 130.978 8.87273 130.978 9.90309V23.1832C130.978 24.2136 130.978 24.8719 130.978 25.3584C130.978 25.845 130.978 26.1884 131.006 26.4746C131.034 26.9898 131.063 27.3905 131.091 27.7626C131.176 28.3636 131.317 28.8502 131.544 29.3367C131.77 29.7947 132.053 30.224 132.421 30.5961C132.789 30.9681 133.186 31.2543 133.667 31.4833C134.12 31.7123 134.629 31.8554 135.224 31.9412C135.592 31.9985 135.96 32.0271 136.469 32.0271C136.752 32.0271 137.092 32.0557 137.573 32.0557C138.054 32.0557 138.706 32.0557 139.725 32.0557H187.507C188.526 32.0557 189.177 32.0557 189.659 32.0557C190.14 32.0557 190.479 32.0557 190.762 32.0271C191.272 31.9985 191.668 31.9699 192.008 31.9412C192.602 31.8554 193.084 31.7123 193.565 31.4833C194.018 31.2543 194.442 30.9681 194.81 30.5961C195.178 30.224 195.461 29.8233 195.688 29.3367C195.914 28.8788 196.056 28.3636 196.141 27.7626C196.197 27.3905 196.226 27.0184 196.226 26.4746C196.226 26.1884 196.254 25.845 196.254 25.3584C196.254 24.8719 196.254 24.2136 196.254 23.1832V9.84585C196.254 8.81549 196.254 8.15721 196.254 7.67065C196.254 7.1841 196.254 6.84064 196.226 6.55443C196.197 6.03926 196.169 5.63856 196.141 5.26649C196.056 4.66545 195.914 4.17889 195.688 3.69234C195.461 3.2344 195.178 2.80509 194.81 2.43301C194.442 2.06094 194.046 1.77473 193.565 1.54576C193.112 1.31679 192.602 1.17369 192.008 1.08783C191.64 1.03058 191.272 1.00196 190.762 1.00196C190.479 1.00196 190.14 0.973343 189.659 0.973343C189.177 1.03058 188.526 1.03058 187.507 1.03058Z" fill="white"/>
</g>
<mask id="mask1_25_218" style="mask-type:luminance" maskUnits="userSpaceOnUse" x="130" y="1" width="67" height="31">
<path d="M196.226 1.03035H130.978V31.9696H196.226V1.03035Z" fill="white"/>
</mask>
<g mask="url(#mask1_25_218)">
<path d="M157.983 15.2836V9.81699H159.993C160.247 9.81699 160.502 9.87423 160.729 9.93147C160.955 10.0173 161.125 10.1318 161.295 10.3035C161.465 10.4753 161.578 10.647 161.663 10.876C161.748 11.1049 161.804 11.3339 161.804 11.6201C161.804 11.8777 161.748 12.1353 161.663 12.3643C161.578 12.5932 161.465 12.7649 161.295 12.9367C161.125 13.1084 160.955 13.2229 160.729 13.3087C160.502 13.3946 160.276 13.4519 159.993 13.4519H158.832V15.3122H157.983V15.2836ZM159.794 10.5325H158.832V12.7077H159.794C160.162 12.7077 160.445 12.6218 160.644 12.4215C160.842 12.2211 160.955 11.9636 160.955 11.6201C160.955 11.2767 160.842 11.0191 160.644 10.8187C160.445 10.647 160.162 10.5325 159.794 10.5325Z" fill="white"/>
</g>
<mask id="mask2_25_218" style="mask-type:luminance" maskUnits="userSpaceOnUse" x="130" y="1" width="67" height="31">
<path d="M196.226 1.03035H130.978V31.9696H196.226V1.03035Z" fill="white"/>
</mask>
<g mask="url(#mask2_25_218)">
<path d="M162.569 15.2836V11.3053H163.389V11.9922H163.418C163.474 11.7632 163.588 11.5629 163.757 11.4484C163.927 11.3053 164.097 11.248 164.324 11.248C164.38 11.248 164.437 11.248 164.493 11.248C164.55 11.248 164.578 11.248 164.607 11.2767V12.0208C164.578 12.0208 164.522 11.9922 164.465 11.9922C164.409 11.9922 164.324 11.9922 164.239 11.9922C163.984 11.9922 163.786 12.0781 163.616 12.2498C163.474 12.4215 163.389 12.6505 163.389 12.9367V15.3122H162.569V15.2836Z" fill="white"/>
</g>
<mask id="mask3_25_218" style="mask-type:luminance" maskUnits="userSpaceOnUse" x="130" y="1" width="67" height="31">
<path d="M196.226 1.03035H130.978V31.9696H196.226V1.03035Z" fill="white"/>
</mask>
<g mask="url(#mask3_25_218)">
<path d="M166.843 15.3695C166.447 15.3695 166.135 15.2836 165.852 15.1119C165.569 14.9401 165.371 14.7112 165.201 14.3964C165.06 14.0815 164.975 13.7381 164.975 13.3088C164.975 12.9939 165.003 12.7077 165.116 12.4501C165.201 12.1925 165.314 11.9636 165.484 11.7918C165.654 11.6201 165.824 11.477 166.05 11.3625C166.277 11.2767 166.532 11.2194 166.786 11.2194C167.154 11.2194 167.466 11.3053 167.749 11.477C168.004 11.6487 168.23 11.8777 168.372 12.1639C168.513 12.4501 168.598 12.8222 168.598 13.2229V13.5091H165.796C165.796 13.8812 165.909 14.1674 166.107 14.3964C166.305 14.5967 166.56 14.7112 166.871 14.7112C167.041 14.7112 167.183 14.6826 167.296 14.6253C167.409 14.5681 167.522 14.5108 167.607 14.425C167.692 14.3391 167.749 14.2532 167.777 14.1388V14.1101H168.541V14.1388C168.513 14.3105 168.456 14.4536 168.372 14.5967C168.287 14.7398 168.173 14.8829 168.032 14.9974C167.89 15.1119 167.721 15.1977 167.522 15.255C167.296 15.3408 167.098 15.3695 166.843 15.3695ZM166.815 11.9063C166.645 11.9063 166.475 11.9349 166.333 12.0208C166.192 12.1067 166.079 12.2212 165.994 12.3643C165.909 12.5074 165.852 12.7077 165.824 12.9367H167.805C167.777 12.5932 167.664 12.3356 167.494 12.1639C167.296 11.9922 167.069 11.9063 166.815 11.9063Z" fill="white"/>
</g>
<mask id="mask4_25_218" style="mask-type:luminance" maskUnits="userSpaceOnUse" x="130" y="1" width="67" height="31">
<path d="M196.226 1.03035H130.978V31.9696H196.226V1.03035Z" fill="white"/>
</mask>
<g mask="url(#mask4_25_218)">
<path d="M169.419 15.2836V11.3053H170.24V11.9349H170.268C170.353 11.7346 170.495 11.5629 170.693 11.4198C170.891 11.3053 171.117 11.2194 171.372 11.2194C171.655 11.2194 171.882 11.2767 172.08 11.4198C172.278 11.5629 172.391 11.7632 172.476 11.9922H172.504C172.618 11.7632 172.759 11.5629 172.986 11.4198C173.212 11.2767 173.467 11.2194 173.722 11.2194C173.976 11.2194 174.203 11.2767 174.401 11.3911C174.599 11.5056 174.741 11.6487 174.854 11.8491C174.967 12.0494 175.024 12.2784 175.024 12.536V15.2836H174.203V12.7363C174.203 12.4787 174.146 12.2784 174.005 12.1353C173.863 11.9922 173.693 11.9349 173.439 11.9349C173.269 11.9349 173.127 11.9636 173.014 12.0494C172.901 12.1353 172.788 12.2212 172.731 12.3643C172.674 12.5074 172.618 12.6505 172.618 12.8222V15.3122H171.825V12.7077C171.825 12.4787 171.768 12.2784 171.627 12.1639C171.485 12.0208 171.316 11.9636 171.089 11.9636C170.919 11.9636 170.778 11.9922 170.665 12.0781C170.551 12.1639 170.438 12.2498 170.381 12.3929C170.325 12.536 170.268 12.6791 170.268 12.8508V15.3122H169.419V15.2836Z" fill="white"/>
</g>
<mask id="mask5_25_218" style="mask-type:luminance" maskUnits="userSpaceOnUse" x="130" y="1" width="67" height="31">
<path d="M196.226 1.03035H130.978V31.9696H196.226V1.03035Z" fill="white"/>
</mask>
<g mask="url(#mask5_25_218)">
<path d="M176.354 10.7042C176.269 10.7042 176.184 10.6756 176.128 10.647C176.043 10.6184 175.986 10.5611 175.958 10.4753C175.93 10.418 175.901 10.3322 175.901 10.2463C175.901 10.1604 175.93 10.0746 175.958 10.0173C175.986 9.9601 176.043 9.90286 176.128 9.84562C176.213 9.817 176.269 9.78838 176.354 9.78838C176.439 9.78838 176.524 9.817 176.609 9.84562C176.694 9.90286 176.722 9.93148 176.779 10.0173C176.807 10.0746 176.835 10.1604 176.835 10.2463C176.835 10.3322 176.807 10.418 176.779 10.4753C176.75 10.5325 176.694 10.5898 176.609 10.647C176.524 10.6756 176.467 10.7042 176.354 10.7042ZM175.958 11.3053H176.779V15.2836H175.958V11.3053Z" fill="white"/>
</g>
<mask id="mask6_25_218" style="mask-type:luminance" maskUnits="userSpaceOnUse" x="130" y="1" width="67" height="31">
<path d="M196.226 1.03035H130.978V31.9696H196.226V1.03035Z" fill="white"/>
</mask>
<g mask="url(#mask6_25_218)">
<path d="M179.128 15.3695C178.845 15.3695 178.59 15.3122 178.392 15.1977C178.194 15.0833 178.024 14.9115 177.939 14.6826C177.826 14.4536 177.77 14.196 177.77 13.8812V11.3053H178.59V13.7381C178.59 14.0243 178.647 14.2819 178.789 14.425C178.93 14.5967 179.128 14.6539 179.411 14.6539C179.609 14.6539 179.779 14.6253 179.893 14.5395C180.034 14.4536 180.147 14.3391 180.232 14.1674C180.317 14.0243 180.345 13.8239 180.345 13.6236V11.3053H181.166V15.2836H180.345V14.6826H180.317C180.204 14.8829 180.062 15.0546 179.864 15.1691C179.694 15.3122 179.44 15.3695 179.128 15.3695Z" fill="white"/>
</g>
<mask id="mask7_25_218" style="mask-type:luminance" maskUnits="userSpaceOnUse" x="130" y="1" width="67" height="31">
<path d="M196.226 1.03035H130.978V31.9696H196.226V1.03035Z" fill="white"/>
</mask>
<g mask="url(#mask7_25_218)">
<path d="M182.129 15.2836V11.3053H182.95V11.9349H182.978C183.063 11.7346 183.205 11.5629 183.403 11.4198C183.601 11.3053 183.827 11.2194 184.082 11.2194C184.365 11.2194 184.592 11.2767 184.79 11.4198C184.988 11.5629 185.101 11.7632 185.186 11.9922H185.214C185.328 11.7632 185.469 11.5629 185.696 11.4198C185.922 11.2767 186.177 11.2194 186.432 11.2194C186.686 11.2194 186.913 11.2767 187.111 11.3911C187.309 11.5056 187.451 11.6487 187.564 11.8491C187.677 12.0494 187.734 12.2784 187.734 12.536V15.2836H186.913V12.7363C186.913 12.4787 186.856 12.2784 186.715 12.1353C186.573 11.9922 186.403 11.9349 186.149 11.9349C185.979 11.9349 185.837 11.9636 185.724 12.0494C185.611 12.1353 185.497 12.2212 185.441 12.3643C185.384 12.5074 185.328 12.6505 185.328 12.8222V15.3122H184.535V12.7077C184.535 12.4787 184.478 12.2784 184.337 12.1639C184.195 12.0208 184.026 11.9636 183.799 11.9636C183.629 11.9636 183.488 11.9922 183.374 12.0781C183.261 12.1639 183.148 12.2498 183.091 12.3929C183.035 12.536 182.978 12.6791 182.978 12.8508V15.3122H182.129V15.2836Z" fill="white"/>
</g>
<mask id="mask8_25_218" style="mask-type:luminance" maskUnits="userSpaceOnUse" x="130" y="1" width="67" height="31">
<path d="M196.226 1.03035H130.978V31.9696H196.226V1.03035Z" fill="white"/>
</mask>
<g mask="url(#mask8_25_218)">
<path d="M157.983 23.3833V17.9167H159.993C160.247 17.9167 160.502 17.974 160.729 18.0312C160.955 18.1171 161.125 18.2315 161.295 18.4033C161.465 18.575 161.578 18.7467 161.663 18.9757C161.748 19.2047 161.804 19.4336 161.804 19.7198C161.804 19.9774 161.748 20.235 161.663 20.464C161.578 20.693 161.465 20.8647 161.295 21.0364C161.125 21.2081 160.955 21.3226 160.729 21.4085C160.502 21.4943 160.276 21.5516 159.993 21.5516H158.832V23.4119L157.983 23.3833ZM159.794 18.6322H158.832V20.8074H159.794C160.162 20.8074 160.445 20.7216 160.644 20.5212C160.842 20.3209 160.955 20.0633 160.955 19.7198C160.955 19.3764 160.842 19.1188 160.644 18.9185C160.445 18.7181 160.162 18.6322 159.794 18.6322Z" fill="white"/>
</g>
<mask id="mask9_25_218" style="mask-type:luminance" maskUnits="userSpaceOnUse" x="130" y="1" width="67" height="31">
<path d="M196.226 1.03035H130.978V31.9696H196.226V1.03035Z" fill="white"/>
</mask>
<g mask="url(#mask9_25_218)">
<path d="M163.531 23.4406C163.276 23.4406 163.05 23.3833 162.852 23.2975C162.653 23.183 162.512 23.0685 162.399 22.8682C162.285 22.6964 162.229 22.4675 162.229 22.2385C162.229 21.8951 162.37 21.6088 162.625 21.4085C162.88 21.2082 163.248 21.0937 163.701 21.065L164.777 21.0078V20.7216C164.777 20.4926 164.72 20.3209 164.578 20.2064C164.437 20.0919 164.239 20.0061 163.984 20.0061C163.757 20.0061 163.559 20.0633 163.418 20.1492C163.276 20.2637 163.191 20.3781 163.163 20.5499V20.5785H162.399V20.5499C162.427 20.3209 162.484 20.1206 162.625 19.9202C162.767 19.7485 162.937 19.6054 163.163 19.4909C163.389 19.3764 163.673 19.3192 164.012 19.3192C164.324 19.3192 164.607 19.3764 164.861 19.4909C165.088 19.6054 165.286 19.7485 165.399 19.9488C165.541 20.1492 165.597 20.3781 165.597 20.6357V23.3833H164.748V22.7537C164.635 22.9827 164.465 23.1258 164.267 23.2689C164.041 23.3833 163.786 23.4406 163.531 23.4406ZM163.05 22.2385C163.05 22.4102 163.106 22.5533 163.248 22.6392C163.389 22.7537 163.559 22.7823 163.757 22.7823C163.956 22.7823 164.125 22.7537 164.267 22.6678C164.409 22.582 164.55 22.4675 164.635 22.353C164.72 22.2099 164.777 22.0668 164.777 21.8951V21.5802L163.814 21.6375C163.559 21.6661 163.389 21.7233 163.248 21.8092C163.106 21.9237 163.05 22.0382 163.05 22.2385Z" fill="white"/>
</g>
<mask id="mask10_25_218" style="mask-type:luminance" maskUnits="userSpaceOnUse" x="130" y="1" width="67" height="31">
<path d="M196.226 1.03035H130.978V31.9696H196.226V1.03035Z" fill="white"/>
</mask>
<g mask="url(#mask10_25_218)">
<path d="M166.503 23.3833V19.405H167.324V20.0919H167.353C167.409 19.863 167.522 19.6626 167.692 19.5481C167.862 19.405 168.032 19.3478 168.258 19.3478C168.315 19.3478 168.372 19.3478 168.428 19.3478C168.485 19.3478 168.513 19.3478 168.541 19.3764V20.1492C168.513 20.1492 168.457 20.1205 168.4 20.1205C168.343 20.1205 168.258 20.1205 168.173 20.1205C167.919 20.1205 167.721 20.2064 167.551 20.3781C167.409 20.5499 167.324 20.7788 167.324 21.065V23.4406L166.503 23.3833Z" fill="white"/>
</g>
<mask id="mask11_25_218" style="mask-type:luminance" maskUnits="userSpaceOnUse" x="130" y="1" width="67" height="31">
<path d="M196.226 1.03035H130.978V31.9696H196.226V1.03035Z" fill="white"/>
</mask>
<g mask="url(#mask11_25_218)">
<path d="M170.863 23.4692C170.466 23.4692 170.183 23.3833 169.985 23.2116C169.787 23.0399 169.702 22.7537 169.702 22.353V20.0633H169.136V19.405H169.702V18.3747H170.523V19.405H171.259V20.0347H170.523V22.2671C170.523 22.4675 170.58 22.6106 170.665 22.6678C170.749 22.7537 170.891 22.7823 171.061 22.7823C171.089 22.7823 171.146 22.7823 171.174 22.7823C171.202 22.7823 171.231 22.7823 171.287 22.7823V23.412C171.231 23.412 171.174 23.4406 171.117 23.4406C171.033 23.4406 170.948 23.4692 170.863 23.4692Z" fill="white"/>
</g>
<mask id="mask12_25_218" style="mask-type:luminance" maskUnits="userSpaceOnUse" x="130" y="1" width="67" height="31">
<path d="M196.226 1.03035H130.978V31.9696H196.226V1.03035Z" fill="white"/>
</mask>
<g mask="url(#mask12_25_218)">
<path d="M172.136 23.3833V19.405H172.957V20.0061H172.986C173.099 19.8057 173.24 19.634 173.439 19.5195C173.637 19.405 173.891 19.3192 174.175 19.3192C174.458 19.3192 174.712 19.3764 174.911 19.4909C175.109 19.6054 175.279 19.7771 175.363 20.0061C175.477 20.235 175.533 20.4926 175.533 20.8075V23.3833H174.712V20.9506C174.712 20.6644 174.656 20.4068 174.514 20.2637C174.373 20.0919 174.175 20.0347 173.891 20.0347C173.693 20.0347 173.523 20.0919 173.41 20.1778C173.269 20.2637 173.156 20.3781 173.071 20.5499C172.986 20.693 172.957 20.8933 172.957 21.0937V23.412L172.136 23.3833Z" fill="white"/>
</g>
<mask id="mask13_25_218" style="mask-type:luminance" maskUnits="userSpaceOnUse" x="130" y="1" width="67" height="31">
<path d="M196.226 1.03035H130.978V31.9696H196.226V1.03035Z" fill="white"/>
</mask>
<g mask="url(#mask13_25_218)">
<path d="M178.166 23.4692C177.77 23.4692 177.458 23.3833 177.175 23.2116C176.892 23.0399 176.694 22.8109 176.524 22.4961C176.382 22.1813 176.298 21.8378 176.298 21.4085C176.298 21.0937 176.326 20.8075 176.439 20.5499C176.524 20.2923 176.637 20.0633 176.807 19.8916C176.977 19.7199 177.147 19.5768 177.373 19.4623C177.6 19.3764 177.854 19.3192 178.109 19.3192C178.477 19.3192 178.789 19.405 179.072 19.5768C179.326 19.7485 179.553 19.9775 179.694 20.2637C179.836 20.5499 179.921 20.9219 179.921 21.3226V21.6088H177.118C177.118 21.9809 177.232 22.2671 177.43 22.4961C177.628 22.6964 177.883 22.8109 178.194 22.8109C178.364 22.8109 178.505 22.7823 178.619 22.7251C178.732 22.6678 178.845 22.6106 178.93 22.5247C179.015 22.4389 179.072 22.353 179.1 22.2385V22.2099H179.864V22.2385C179.836 22.4102 179.779 22.5533 179.694 22.6964C179.609 22.8396 179.496 22.9827 179.355 23.0971C179.213 23.2116 179.043 23.2975 178.845 23.3547C178.619 23.412 178.392 23.4692 178.166 23.4692ZM178.109 19.9775C177.939 19.9775 177.769 20.0061 177.628 20.0919C177.486 20.1778 177.373 20.2923 177.288 20.4354C177.203 20.5785 177.147 20.7788 177.118 21.0078H179.1C179.072 20.6644 178.958 20.4068 178.789 20.235C178.59 20.0633 178.392 19.9775 178.109 19.9775Z" fill="white"/>
</g>
<mask id="mask14_25_218" style="mask-type:luminance" maskUnits="userSpaceOnUse" x="130" y="1" width="67" height="31">
<path d="M196.226 1.03035H130.978V31.9696H196.226V1.03035Z" fill="white"/>
</mask>
<g mask="url(#mask14_25_218)">
<path d="M180.713 23.3833V19.405H181.534V20.0919H181.563C181.619 19.863 181.733 19.6626 181.902 19.5481C182.072 19.405 182.242 19.3478 182.469 19.3478C182.525 19.3478 182.582 19.3478 182.638 19.3478C182.695 19.3478 182.723 19.3478 182.752 19.3764V20.1492C182.723 20.1492 182.667 20.1205 182.61 20.1205C182.553 20.1205 182.469 20.1205 182.384 20.1205C182.129 20.1205 181.931 20.2064 181.761 20.3781C181.619 20.5499 181.534 20.7788 181.534 21.065V23.4406L180.713 23.3833Z" fill="white"/>
</g>
<mask id="mask15_25_218" style="mask-type:luminance" maskUnits="userSpaceOnUse" x="130" y="1" width="67" height="31">
<path d="M196.226 1.03035H130.978V31.9696H196.226V1.03035Z" fill="white"/>
</mask>
<g mask="url(#mask15_25_218)">
<path d="M149.576 11.1622C148.217 11.0477 147.056 11.9349 146.405 11.9349C145.754 11.9349 144.735 11.1908 143.688 11.2194C142.272 11.248 140.998 12.0494 140.262 13.3087C138.791 15.856 139.894 19.6626 141.31 21.7233C142.018 22.7251 142.838 23.8699 143.914 23.8413C144.961 23.8127 145.358 23.1544 146.632 23.1544C147.905 23.1544 148.245 23.8413 149.349 23.8127C150.481 23.784 151.189 22.7823 151.868 21.7519C152.661 20.5785 153.001 19.4336 153.001 19.3764C152.972 19.3764 150.793 18.5178 150.793 15.9991C150.764 13.8812 152.491 12.8794 152.576 12.8222C151.642 11.3625 150.113 11.2194 149.576 11.1622Z" fill="white"/>
</g>
<mask id="mask16_25_218" style="mask-type:luminance" maskUnits="userSpaceOnUse" x="130" y="1" width="67" height="31">
<path d="M196.226 1.03035H130.978V31.9696H196.226V1.03035Z" fill="white"/>
</mask>
<g mask="url(#mask16_25_218)">
<path d="M148.755 9.78837C149.321 9.07285 149.717 8.09973 149.604 7.12662C148.783 7.15524 147.764 7.69904 147.169 8.38594C146.632 9.0156 146.179 10.0173 146.292 10.9618C147.226 11.0477 148.16 10.5039 148.755 9.78837Z" fill="white"/>
</g>
</g>
<path d="M38.2011 48H37.1465V44.3613L34.1465 39.5449H35.3476L37.6562 43.3418H37.6914L40 39.5449H41.2011L38.2011 44.3613V48ZM43.4218 48.1055C41.7343 48.1055 40.5976 46.8926 40.5976 44.9531C40.5976 43.0078 41.7343 41.8008 43.4218 41.8008C45.1035 41.8008 46.2402 43.0078 46.2402 44.9531C46.2402 46.8926 45.1035 48.1055 43.4218 48.1055ZM43.4218 47.209C44.5 47.209 45.2031 46.3887 45.2031 44.9531C45.2031 43.5176 44.5 42.6973 43.4218 42.6973C42.3437 42.6973 41.6347 43.5176 41.6347 44.9531C41.6347 46.3887 42.3437 47.209 43.4218 47.209ZM52.2754 41.9062V48H51.3086V47.0098H51.2851C50.9218 47.7129 50.289 48.1055 49.3515 48.1055C48.0215 48.1055 47.2422 47.2441 47.2422 45.8613V41.9062H48.2617V45.6797C48.2617 46.6699 48.7246 47.2031 49.6679 47.2031C50.6582 47.2031 51.2558 46.5234 51.2558 45.4863V41.9062H52.2754ZM53.5996 48V41.9062H54.5605V42.9023H54.584C54.7832 42.2285 55.3457 41.8008 56.0605 41.8008C56.2363 41.8008 56.3886 41.8301 56.4707 41.8418V42.832C56.3886 42.8027 56.1718 42.7734 55.9258 42.7734C55.1347 42.7734 54.6191 43.3418 54.6191 44.2031V48H53.5996ZM63.4023 48.1406C61.0703 48.1406 59.5937 46.4473 59.5937 43.7695C59.5937 41.1152 61.0879 39.4043 63.4023 39.4043C65.2422 39.4043 66.6425 40.5234 66.9121 42.2109H65.8457C65.5761 41.1035 64.6093 40.377 63.4023 40.377C61.75 40.377 60.6777 41.7129 60.6777 43.7695C60.6777 45.8438 61.7383 47.168 63.4082 47.168C64.6504 47.168 65.541 46.5703 65.8457 45.5391H66.9121C66.5254 47.209 65.2715 48.1406 63.4023 48.1406ZM68.0019 48V41.9062H68.9629V42.9023H68.9863C69.1855 42.2285 69.748 41.8008 70.4629 41.8008C70.6386 41.8008 70.791 41.8301 70.873 41.8418V42.832C70.791 42.8027 70.5742 42.7734 70.3281 42.7734C69.5371 42.7734 69.0215 43.3418 69.0215 44.2031V48H68.0019ZM73.8554 42.6855C72.9004 42.6855 72.2324 43.418 72.1679 44.4316H75.4785C75.455 43.4121 74.8164 42.6855 73.8554 42.6855ZM75.455 46.2539H76.457C76.2812 47.3203 75.25 48.1055 73.9199 48.1055C72.1738 48.1055 71.1133 46.8926 71.1133 44.9766C71.1133 43.084 72.1914 41.8008 73.873 41.8008C75.5195 41.8008 76.5332 42.9961 76.5332 44.8418V45.2285H72.1621V45.2871C72.1621 46.4531 72.8476 47.2207 73.9433 47.2207C74.7168 47.2207 75.2851 46.8281 75.455 46.2539ZM79.5742 47.2383C80.5351 47.2383 81.2734 46.5645 81.2734 45.6855V45.1875L79.6445 45.2871C78.8242 45.3398 78.3554 45.7031 78.3554 46.2773C78.3554 46.8574 78.8418 47.2383 79.5742 47.2383ZM79.3457 48.1055C78.1328 48.1055 77.3183 47.373 77.3183 46.2773C77.3183 45.2344 78.1211 44.5781 79.5273 44.4961L81.2734 44.3965V43.8867C81.2734 43.1426 80.7812 42.6973 79.9375 42.6973C79.1523 42.6973 78.6601 43.0664 78.5312 43.6641H77.5468C77.6172 42.6094 78.5195 41.8008 79.9609 41.8008C81.3906 41.8008 82.2929 42.5742 82.2929 43.7871V48H81.3261V46.9512H81.3027C80.9394 47.6484 80.166 48.1055 79.3457 48.1055ZM83.916 40.4355H84.9355V41.9062H86.1191V42.7441H84.9355V46.3652C84.9355 46.9219 85.1699 47.1738 85.6914 47.1738C85.8086 47.1738 86.0429 47.1562 86.1133 47.1445V48C85.9902 48.0293 85.709 48.0469 85.4687 48.0469C84.3496 48.0469 83.916 47.5898 83.916 46.418V42.7441H83.0078V41.9062H83.916V40.4355ZM87.2617 48V41.9062H88.2812V48H87.2617ZM87.7715 40.8809C87.4258 40.8809 87.1386 40.5938 87.1386 40.248C87.1386 39.8965 87.4258 39.6152 87.7715 39.6152C88.123 39.6152 88.4101 39.8965 88.4101 40.248C88.4101 40.5938 88.123 40.8809 87.7715 40.8809ZM94.6562 41.9062L92.4179 48H91.375L89.1308 41.9062H90.2031L91.8847 46.916H91.9082L93.5957 41.9062H94.6562ZM97.7265 42.6855C96.7715 42.6855 96.1035 43.418 96.039 44.4316H99.3496C99.3261 43.4121 98.6875 42.6855 97.7265 42.6855ZM99.3261 46.2539H100.328C100.152 47.3203 99.1211 48.1055 97.791 48.1055C96.0449 48.1055 94.9843 46.8926 94.9843 44.9766C94.9843 43.084 96.0625 41.8008 97.7441 41.8008C99.3906 41.8008 100.404 42.9961 100.404 44.8418V45.2285H96.0332V45.2871C96.0332 46.4531 96.7187 47.2207 97.8144 47.2207C98.5879 47.2207 99.1562 46.8281 99.3261 46.2539ZM107.535 48.1406C105.203 48.1406 103.727 46.4473 103.727 43.7695C103.727 41.1152 105.221 39.4043 107.535 39.4043C109.375 39.4043 110.775 40.5234 111.045 42.2109H109.978C109.709 41.1035 108.742 40.377 107.535 40.377C105.883 40.377 104.811 41.7129 104.811 43.7695C104.811 45.8438 105.871 47.168 107.541 47.168C108.783 47.168 109.674 46.5703 109.978 45.5391H111.045C110.658 47.209 109.404 48.1406 107.535 48.1406ZM114.66 48.1055C112.973 48.1055 111.836 46.8926 111.836 44.9531C111.836 43.0078 112.973 41.8008 114.66 41.8008C116.342 41.8008 117.478 43.0078 117.478 44.9531C117.478 46.8926 116.342 48.1055 114.66 48.1055ZM114.66 47.209C115.738 47.209 116.441 46.3887 116.441 44.9531C116.441 43.5176 115.738 42.6973 114.66 42.6973C113.582 42.6973 112.873 43.5176 112.873 44.9531C112.873 46.3887 113.582 47.209 114.66 47.209ZM118.51 48V41.9062H119.471V42.8789H119.494C119.834 42.2227 120.484 41.8008 121.428 41.8008C122.764 41.8008 123.537 42.6621 123.537 44.0449V48H122.518V44.2266C122.518 43.2422 122.055 42.7031 121.117 42.7031C120.156 42.7031 119.529 43.3828 119.529 44.4141V48H118.51ZM124.838 48V41.9062H125.799V42.8789H125.822C126.162 42.2227 126.812 41.8008 127.756 41.8008C129.092 41.8008 129.865 42.6621 129.865 44.0449V48H128.846V44.2266C128.846 43.2422 128.383 42.7031 127.445 42.7031C126.484 42.7031 125.857 43.3828 125.857 44.4141V48H124.838ZM133.609 42.6855C132.654 42.6855 131.986 43.418 131.922 44.4316H135.232C135.209 43.4121 134.57 42.6855 133.609 42.6855ZM135.209 46.2539H136.211C136.035 47.3203 135.004 48.1055 133.674 48.1055C131.928 48.1055 130.867 46.8926 130.867 44.9766C130.867 43.084 131.945 41.8008 133.627 41.8008C135.273 41.8008 136.287 42.9961 136.287 44.8418V45.2285H131.916V45.2871C131.916 46.4531 132.602 47.2207 133.697 47.2207C134.471 47.2207 135.039 46.8281 135.209 46.2539ZM142.381 43.9043H141.385C141.238 43.2422 140.723 42.6973 139.826 42.6973C138.771 42.6973 138.057 43.5703 138.057 44.9531C138.057 46.3711 138.783 47.209 139.838 47.209C140.67 47.209 141.215 46.7695 141.391 46.0371H142.393C142.234 47.25 141.215 48.1055 139.832 48.1055C138.145 48.1055 137.02 46.916 137.02 44.9531C137.02 43.0312 138.139 41.8008 139.82 41.8008C141.344 41.8008 142.252 42.8086 142.381 43.9043ZM143.658 40.4355H144.678V41.9062H145.861V42.7441H144.678V46.3652C144.678 46.9219 144.912 47.1738 145.434 47.1738C145.551 47.1738 145.785 47.1562 145.855 47.1445V48C145.732 48.0293 145.451 48.0469 145.211 48.0469C144.092 48.0469 143.658 47.5898 143.658 46.418V42.7441H142.75V41.9062H143.658V40.4355ZM147.004 48V41.9062H148.023V48H147.004ZM147.514 40.8809C147.168 40.8809 146.881 40.5938 146.881 40.248C146.881 39.8965 147.168 39.6152 147.514 39.6152C147.865 39.6152 148.152 39.8965 148.152 40.248C148.152 40.5938 147.865 40.8809 147.514 40.8809ZM151.926 48.1055C150.238 48.1055 149.102 46.8926 149.102 44.9531C149.102 43.0078 150.238 41.8008 151.926 41.8008C153.607 41.8008 154.744 43.0078 154.744 44.9531C154.744 46.8926 153.607 48.1055 151.926 48.1055ZM151.926 47.209C153.004 47.209 153.707 46.3887 153.707 44.9531C153.707 43.5176 153.004 42.6973 151.926 42.6973C150.848 42.6973 150.139 43.5176 150.139 44.9531C150.139 46.3887 150.848 47.209 151.926 47.209ZM155.775 48V41.9062H156.736V42.8789H156.76C157.1 42.2227 157.75 41.8008 158.693 41.8008C160.029 41.8008 160.803 42.6621 160.803 44.0449V48H159.783V44.2266C159.783 43.2422 159.32 42.7031 158.383 42.7031C157.422 42.7031 156.795 43.3828 156.795 44.4141V48H155.775ZM162.965 48.0586C162.59 48.0586 162.297 47.7656 162.297 47.3906C162.297 47.0156 162.59 46.7227 162.965 46.7227C163.34 46.7227 163.633 47.0156 163.633 47.3906C163.633 47.7656 163.34 48.0586 162.965 48.0586Z" fill="white"/>
<defs>
<clipPath id="clip0_25_218">
<rect width="199" height="33" fill="white"/>
</clipPath>
</defs>
</svg>
